<?xml version="1.0" standalone="no"?>
<!DOCTYPE svg PUBLIC "-//W3C//DTD SVG 20010904//EN"
 "http://www.w3.org/TR/2001/REC-SVG-20010904/DTD/svg10.dtd">
<svg version="1.0" xmlns="http://www.w3.org/2000/svg"
 width="1600.000000pt" height="1600.000000pt" viewBox="0 0 1600.000000 1600.000000"
 preserveAspectRatio="xMidYMid meet">
<metadata>
Created by potrace 1.14, written by Peter Selinger 2001-2017
</metadata>
<g transform="translate(0.000000,1600.000000) scale(0.100000,-0.100000)"
fill="#000000" stroke="none">
<path d="M4831 14984 c-109 -17 -275 -71 -375 -121 -82 -41 -217 -129 -263
-172 -18 -16 -41 -36 -50 -43 -10 -7 -53 -51 -96 -97 -202 -217 -359 -514
-451 -854 -14 -51 -27 -103 -30 -117 -2 -14 -11 -63 -20 -110 -8 -47 -18 -101
-20 -120 -27 -177 -28 -645 -2 -800 3 -14 7 -43 10 -65 55 -424 218 -901 429
-1265 98 -169 270 -410 355 -499 9 -9 33 -35 53 -57 259 -281 626 -521 919
-600 30 -8 64 -18 75 -21 101 -27 223 -40 360 -37 83 1 166 5 185 9 19 3 44 8
56 10 12 2 55 13 96 24 553 155 970 669 1124 1386 8 39 17 86 20 105 3 19 9
60 14 90 25 148 34 555 17 720 -40 382 -125 720 -266 1058 -43 102 -138 296
-183 370 -21 34 -38 67 -38 72 0 6 -4 10 -9 10 -5 0 -11 8 -13 18 -5 15 -172
260 -187 272 -4 3 -26 30 -51 60 -55 67 -55 67 -159 174 -154 159 -357 316
-531 410 -47 25 -92 49 -100 52 -8 3 -34 15 -58 25 -70 31 -190 70 -302 96
-133 31 -366 39 -509 17z"/>
<path d="M10800 14993 c-14 -2 -70 -13 -125 -24 -615 -126 -1203 -644 -1560
-1376 -158 -323 -272 -680 -320 -1003 -34 -228 -40 -308 -40 -545 0 -232 12
-365 50 -570 55 -289 179 -598 328 -819 148 -220 361 -412 576 -521 85 -42
227 -90 327 -111 90 -18 342 -26 424 -13 30 5 70 11 89 14 131 21 311 84 465
163 84 43 273 164 327 210 13 11 47 39 74 62 149 126 305 295 428 463 145 197
305 482 379 672 10 27 25 64 33 80 58 130 156 476 190 670 2 17 7 39 9 50 2
12 7 48 11 80 4 33 9 69 11 80 11 60 19 223 19 400 -1 231 -8 323 -37 490 -15
91 -18 102 -34 174 -9 36 -17 73 -19 81 -14 61 -83 255 -121 337 -45 98 -63
134 -97 193 -91 157 -157 242 -286 370 -201 199 -394 306 -666 371 -69 16
-128 22 -250 24 -88 1 -171 0 -185 -2z"/>
<path d="M1295 10985 c-198 -32 -268 -54 -445 -142 -234 -117 -442 -315 -593
-566 -26 -43 -47 -80 -47 -82 0 -2 -15 -37 -34 -77 -57 -122 -116 -300 -131
-392 -3 -17 -10 -53 -15 -81 -27 -139 -34 -453 -14 -620 35 -291 116 -556 251
-825 273 -546 726 -952 1255 -1124 41 -13 135 -37 150 -37 4 0 22 -5 40 -10
55 -16 166 -24 318 -23 152 1 295 23 417 65 81 27 85 29 206 89 311 157 573
454 707 805 12 33 26 69 31 80 9 23 32 95 35 110 1 6 9 37 17 70 9 33 18 74
20 90 3 17 7 46 11 65 3 19 8 51 12 70 10 61 12 412 3 485 -5 39 -12 90 -14
115 -3 25 -7 52 -10 60 -2 8 -7 31 -10 50 -14 85 -70 279 -115 397 -128 340
-310 621 -568 881 -144 143 -400 322 -582 405 -76 35 -266 102 -317 112 -153
31 -208 37 -343 40 -91 1 -188 -3 -235 -10z"/>
<path d="M14290 10984 c-447 -58 -920 -343 -1244 -749 -121 -151 -195 -266
-278 -430 -126 -250 -202 -488 -244 -766 -19 -123 -26 -477 -10 -579 56 -384
164 -653 365 -915 58 -75 179 -195 251 -249 30 -22 57 -43 60 -47 9 -10 123
-76 186 -107 87 -44 254 -98 372 -120 117 -22 380 -24 487 -4 33 6 74 14 92
17 18 3 42 9 55 14 13 5 25 8 28 8 38 -1 267 90 390 156 77 41 274 172 308
204 10 10 32 28 48 41 45 35 211 200 252 251 20 25 47 57 60 71 13 14 64 85
113 159 146 219 268 487 335 736 25 92 56 255 68 345 14 114 15 454 1 530 -37
214 -72 358 -104 435 -5 11 -15 36 -22 55 -29 80 -161 325 -189 350 -3 3 -24
30 -46 60 -177 237 -474 433 -769 506 -16 4 -34 8 -40 10 -116 30 -365 39
-525 18z"/>
<path d="M7770 8989 c-47 -4 -105 -11 -130 -15 -25 -3 -54 -8 -66 -9 -11 -2
-45 -8 -75 -14 -31 -7 -69 -14 -85 -17 -124 -21 -454 -122 -614 -187 -14 -5
-34 -13 -45 -18 -160 -63 -470 -212 -624 -301 -46 -26 -85 -48 -86 -48 -18 0
-449 -281 -615 -400 -197 -142 -521 -399 -650 -517 -19 -17 -46 -41 -60 -53
-165 -143 -601 -572 -762 -750 -329 -365 -611 -719 -858 -1078 -97 -141 -261
-393 -293 -452 -8 -14 -49 -86 -92 -160 -152 -265 -308 -586 -415 -855 -18
-44 -36 -89 -41 -100 -7 -18 -78 -231 -114 -345 -33 -103 -97 -392 -110 -495
-4 -28 -8 -57 -10 -65 -26 -104 -26 -567 0 -684 3 -12 7 -32 9 -46 2 -14 13
-61 25 -106 67 -262 209 -507 402 -694 62 -60 72 -68 139 -120 25 -19 47 -38
48 -42 2 -5 10 -8 18 -8 8 0 14 -4 14 -8 0 -5 10 -14 23 -20 12 -6 49 -27 82
-47 137 -80 379 -184 493 -210 9 -3 51 -13 92 -24 65 -18 142 -34 265 -55 17
-3 53 -8 80 -12 28 -3 64 -7 80 -10 183 -26 748 -25 917 1 13 2 50 6 83 10
378 40 820 152 1555 394 237 78 308 101 445 142 72 21 144 43 160 48 47 15
262 68 350 86 102 21 105 22 151 30 65 11 87 14 144 20 30 3 62 8 70 10 73 21
538 21 670 0 14 -2 63 -9 110 -15 293 -39 653 -134 1215 -322 66 -22 127 -41
135 -43 8 -2 29 -9 45 -15 55 -22 371 -119 550 -169 221 -62 533 -129 675
-146 25 -3 56 -8 70 -10 48 -9 153 -21 295 -32 170 -15 755 -6 785 12 3 1 30
6 61 9 31 4 66 8 77 11 11 2 35 6 53 9 93 15 201 41 374 90 6 2 17 6 25 9 8 3
49 18 90 33 111 41 342 153 360 175 3 3 25 19 50 34 119 74 263 207 371 342
74 92 172 273 218 401 35 96 77 276 88 377 10 88 10 395 0 495 -15 144 -40
290 -78 450 -12 47 -22 92 -24 100 -14 71 -116 382 -165 505 -148 372 -296
668 -545 1093 -60 102 -251 392 -354 537 -210 297 -489 644 -721 900 -25 27
-70 76 -100 110 -68 75 -505 512 -580 580 -30 28 -93 84 -140 125 -47 41 -87
77 -90 80 -3 3 -32 27 -65 54 -33 27 -64 54 -70 61 -19 21 -331 263 -460 357
-112 82 -395 273 -447 303 -10 6 -68 40 -130 76 -612 361 -1133 559 -1673 635
-125 18 -447 25 -575 13z"/>
</g>
</svg>
